# xmcd CD database file generated by Grip 2.95
# 
# Track frame offsets:
#       150
#       11656
#       29079
#       50852
#       68155
#       83441
#       95147
#       115129
#       131473
#       143898
#       155852
#       167361
# 
# Disc length: 2483 seconds
# 
# Revision: 3
# Processed by: cddbd v1.4b42PL1 Copyright (c) Steve Scherf et al.
# Submitted via: Grip 2.95
# 
DISCID=a409b10c
DTITLE=Jimi Hocking - Based on Actual Events
DYEAR=1900
DGENRE=
TTITLE0=I Wanna' Play the Blues
TTITLE1=Concrete Shoes
TTITLE2=Secret Smile
TTITLE3=Self Help Song #338 (Build a Treehouse)
TTITLE4=Ode (My Gypsy Friend)
TTITLE5=Monkey on my Back
TTITLE6=This Moment
TTITLE7=Rearrange Myself
TTITLE8=Little Black Cat
TTITLE9=Robot Man
TTITLE10=Contemplating
TTITLE11=Love Still Burns
EXTD=
EXTT0=
EXTT1=
EXTT2=
EXTT3=
EXTT4=
EXTT5=
EXTT6=
EXTT7=
EXTT8=
EXTT9=
EXTT10=
EXTT11=
PLAYORDER=
